<svg width="28" height="205" viewBox="0 0 28 205" fill="none" xmlns="http://www.w3.org/2000/svg">
<path d="M24.5001 14.2413C24.5001 13.5351 24.4375 12.8646 24.3302 12.212H14.228V16.2439H20.0122C19.7529 17.567 18.993 18.6845 17.8666 19.4444V22.1264H21.3174C23.3379 20.2579 24.5001 17.5044 24.5001 14.2413Z" fill="#4285F4"/>
<path d="M14.2279 24.728C17.1245 24.728 19.5472 23.7625 21.3173 22.1265L17.8665 19.4445C16.901 20.0882 15.6762 20.4815 14.2279 20.4815C11.4297 20.4815 9.06061 18.5952 8.21131 16.0473H4.6532V18.8098C6.41437 22.3142 10.0351 24.728 14.2279 24.728Z" fill="#34A853"/>
<path d="M8.21136 16.0473C7.98787 15.4036 7.87164 14.7152 7.87164 14C7.87164 13.2848 7.99681 12.5964 8.21136 11.9528V9.19031H4.65326C3.92018 10.6386 3.5 12.2657 3.5 14C3.5 15.7344 3.92018 17.3614 4.65326 18.8097L8.21136 16.0473Z" fill="#FBBC05"/>
<path d="M14.2279 7.51852C15.8103 7.51852 17.2228 8.06386 18.3403 9.12772L21.3978 6.07025C19.5472 4.33589 17.1245 3.27203 14.2279 3.27203C10.0351 3.27203 6.41437 5.68583 4.6532 9.1903L8.21131 11.9527C9.0606 9.40486 11.4297 7.51852 14.2279 7.51852Z" fill="#EA4335"/>
<path d="M19.8333 62.3333H16.3333C14.7862 62.3333 13.3025 62.9479 12.2085 64.0419C11.1146 65.1358 10.5 66.6196 10.5 68.1666V71.6666H7V76.3333H10.5V85.6666H15.1667V76.3333H18.6667L19.8333 71.6666H15.1667V68.1666C15.1667 67.8572 15.2896 67.5605 15.5084 67.3417C15.7272 67.1229 16.0239 67 16.3333 67H19.8333V62.3333Z" fill="#2D9CDB"/>
<path d="M24.9977 133.999C24.9977 136.927 24.9977 139.855 24.9977 142.784C24.9977 144.088 24.0909 144.999 22.7863 145C16.9402 145 11.0943 145 5.2485 145C3.92973 145 3.00436 144.091 3.00327 142.776C2.99891 136.92 2.99891 131.065 3.00327 125.211C3.00327 123.906 3.92646 123.001 5.22667 123H22.7672C24.1078 123 24.9999 123.899 24.9999 125.246C25.0003 128.161 24.9995 131.079 24.9977 133.999ZM12.2521 134.042C12.3437 134.083 12.3792 134.171 12.4288 134.241C13.4835 135.722 14.5404 137.201 15.5858 138.689C15.7309 138.896 15.8826 138.99 16.1423 138.986C17.1244 138.971 18.1066 138.971 19.0887 138.986C19.3549 138.989 19.4297 138.897 19.4291 138.64C19.4226 135.539 19.4226 132.439 19.4291 129.338C19.4291 129.09 19.3506 129.005 19.1018 129.008C18.1289 129.019 17.1561 129.021 16.1833 129.008C15.9104 129.003 15.8226 129.086 15.8248 129.364C15.8373 130.818 15.8308 132.273 15.8308 133.729C15.8308 133.819 15.8308 133.91 15.8308 134.001C15.8308 134.046 15.8362 134.1 15.7877 134.121C15.72 134.151 15.6911 134.089 15.6595 134.049C15.6142 133.994 15.5765 133.93 15.5356 133.87C14.4844 132.331 13.4342 130.791 12.3852 129.251C12.2701 129.08 12.1435 129.009 11.9383 129.011C10.9289 129.019 9.91954 129.019 8.91015 129.011C8.67062 129.011 8.57459 129.07 8.57514 129.331C8.5835 132.441 8.5835 135.551 8.57514 138.661C8.57514 138.909 8.6477 138.993 8.90251 138.988C9.89335 138.976 10.8844 138.976 11.8756 138.988C12.1331 138.992 12.2221 138.92 12.2199 138.652C12.2084 137.216 12.2139 135.779 12.2161 134.342C12.2111 134.241 12.18 134.139 12.2542 134.04L12.2521 134.042Z" fill="#00BF18"/>
<path d="M24.5 193.417C24.504 194.957 24.1442 196.476 23.45 197.85C22.6268 199.497 21.3614 200.882 19.7954 201.851C18.2293 202.819 16.4246 203.333 14.5833 203.333C13.0435 203.337 11.5245 202.978 10.15 202.283L3.5 204.5L5.71667 197.85C5.02242 196.476 4.66265 194.957 4.66667 193.417C4.66738 191.575 5.18071 189.771 6.14917 188.205C7.11763 186.639 8.50296 185.373 10.15 184.55C11.5245 183.856 13.0435 183.496 14.5833 183.5H15.1667C17.5984 183.634 19.8952 184.661 21.6173 186.383C23.3394 188.105 24.3658 190.402 24.5 192.833V193.417Z" fill="#F2C94C"/>
</svg>
