<svg width="200" height="200" viewBox="0 0 200 200" fill="none" xmlns="http://www.w3.org/2000/svg">
<path d="M56.5471 103.028V124.484L51.145 134.746L43.2875 138.477L30.5191 141.742H16.7684L4 145.007L8.91094 149.671L16.7684 152.936H30.5191C33.6621 152.936 45.5793 156.979 51.145 159H81.5929L93.8702 155.735L120.88 152.936H153.293L172.936 155.735L191.107 152.936L197 149.671L194.053 145.007L189.142 141.742L172.936 138.477L160.168 134.746L156.239 124.484L147.399 107.693L138.069 85.3039L135.122 69.9117H147.399L156.239 83.4382L158.204 96.4982L162.132 85.3039L160.168 66.6466L149.364 44.2579L125.791 28.8657L102.71 27L79.6285 44.2579L68.8244 59.6502L64.4046 73.1767L60.4758 88.5689L56.5471 103.028Z" fill="#43370D" stroke="black" stroke-width="2" stroke-linecap="round"/>
</svg>
